<?xml version="1.0" encoding="utf-8"?>
<!-- Generator: Adobe Illustrator 17.0.1, SVG Export Plug-In . SVG Version: 6.00 Build 0)  -->
<!DOCTYPE svg PUBLIC "-//W3C//DTD SVG 1.1//EN" "http://www.w3.org/Graphics/SVG/1.1/DTD/svg11.dtd">
<svg version="1.1" id="图层_1" xmlns="http://www.w3.org/2000/svg" xmlns:xlink="http://www.w3.org/1999/xlink" x="0px" y="0px"
	 width="146px" height="58px" viewBox="0 0 146 58" enable-background="new 0 0 146 58" xml:space="preserve">
<g id="图层_1_1_">
</g>
<g id="图层_3">
	<rect fill="#FE6813" width="146" height="58"/>
</g>
<g id="图层_2">
	<path fill="#FFFFFF" d="M57.829,29.331l-3.668-3.668L35.173,6.676l-3.798-3.798l-3.218,3.218L8.933,25.321l-3.158,3.158
		L5.714,28.54l26.453,26.453l3.218-3.218L12.731,29.118L31.955,9.894l18.988,18.988L38.057,41.767l-3.74-3.74l6.637-6.637
		l3.158-3.158l0.06-0.06L32.73,16.728l-0.06,0.06l-0.064-0.064L19.621,29.708l0.064,0.064l-0.03,0.03l15.183,15.183l3.668,3.668
		l0.13,0.13l19.322-19.322L57.829,29.331z M30.519,34.229l-3.912-3.912l6.637-6.637l3.912,3.912L30.519,34.229z"/>
</g>
<g id="图层_4">
	<g>
		<path fill="#FFFFFF" d="M70.352,9.444h-5.725c-0.45,0-0.8,0.058-1.05,0.173l-0.45-1.014c0.35,0.083,0.767,0.124,1.25,0.124h16.475
			l0.9-1.31c0.2-0.28,0.371-0.42,0.513-0.42s0.575,0.35,1.3,1.051s1.088,1.108,1.088,1.224s-0.167,0.173-0.5,0.173h-6.926v16.812
			h3.926l0.949-1.335c0.217-0.313,0.421-0.47,0.613-0.47c0.191,0,0.67,0.359,1.438,1.076c0.766,0.717,1.149,1.153,1.149,1.31
			s-0.167,0.235-0.5,0.235H63.927c-0.45,0-0.8,0.058-1.05,0.173l-0.45-1.113c0.35,0.083,0.767,0.124,1.25,0.124h6.675V9.444z
			 M65.027,12.386c2.7,3.527,4.05,6.329,4.05,8.406c0,0.775-0.2,1.487-0.6,2.138s-0.809,0.977-1.225,0.977
			c-0.417,0-0.625-0.396-0.625-1.187l0.05-1.458c0-2.752-0.708-5.62-2.125-8.604L65.027,12.386z M75.002,9.444h-2.35v16.812h2.35
			V9.444z M80.977,12.411c0.65,0.248,1.254,0.523,1.813,0.829s0.896,0.515,1.013,0.63s0.175,0.222,0.175,0.321
			c0,0.214-0.171,0.346-0.512,0.396c-0.342,0.049-0.646,0.379-0.913,0.989c-1.167,2.604-2.725,5.357-4.675,8.258l-0.375-0.248
			C78.769,20.322,79.927,16.598,80.977,12.411z"/>
		<path fill="#FFFFFF" d="M98.602,9.32c-0.416-1.483-1.166-2.554-2.25-3.214l0.2-0.445c1.45,0.198,2.538,0.449,3.263,0.754
			c0.725,0.305,1.088,0.705,1.088,1.199c0,0.264-0.092,0.564-0.275,0.902s-0.434,0.605-0.75,0.803h6.575l0.899-1.211
			c0.267-0.362,0.476-0.544,0.625-0.544c0.15,0,0.292,0.054,0.426,0.161c0.133,0.107,0.416,0.387,0.85,0.84
			c0.434,0.454,0.737,0.783,0.912,0.989c0.176,0.207,0.263,0.346,0.263,0.42s-0.158,0.111-0.475,0.111h-7.275
			c0.434,0.165,0.913,0.371,1.438,0.618s0.833,0.412,0.925,0.494c0.092,0.083,0.138,0.173,0.138,0.272s-0.196,0.186-0.587,0.26
			c-0.393,0.074-0.788,0.239-1.188,0.495c-0.4,0.255-1,0.795-1.801,1.619h3.726l0.55-0.915c0.1-0.148,0.229-0.223,0.388-0.223
			c0.158,0,0.454,0.148,0.888,0.445l1.1,0.717c0.3,0.198,0.45,0.379,0.45,0.544s-0.342,0.387-1.025,0.667v9.815
			c0,1.071-0.079,1.805-0.237,2.2s-0.6,0.787-1.325,1.174s-1.188,0.581-1.388,0.581c-0.199,0-0.333-0.177-0.399-0.532
			c-0.067-0.354-0.188-0.651-0.362-0.89c-0.176-0.239-0.484-0.479-0.926-0.717s-1.121-0.523-2.037-0.853l0.15-0.568
			c1.833,0.379,2.953,0.568,3.362,0.568c0.408,0,0.658-0.07,0.75-0.21c0.091-0.14,0.138-0.408,0.138-0.804v-10.21H92.277v4.969
			c1.699-1.252,3.149-2.818,4.35-4.697c0.316,0.148,0.75,0.379,1.3,0.692c0.55,0.313,0.866,0.507,0.95,0.581
			c0.083,0.074,0.125,0.152,0.125,0.235c0,0.148-0.104,0.239-0.313,0.272c-0.209,0.033-0.529,0.189-0.963,0.47l-2.05,1.286
			c0.417,0.148,0.851,0.354,1.3,0.618h3.525l0.55-0.816c0.066-0.099,0.134-0.148,0.2-0.148c0.133,0,0.504,0.227,1.112,0.68
			c0.608,0.454,0.913,0.729,0.913,0.828c0,0.116-0.226,0.305-0.676,0.569v2.374c0,0.346,0.009,0.643,0.025,0.89l0.05,0.618
			c0,0.214-0.279,0.412-0.837,0.593c-0.559,0.181-0.913,0.272-1.063,0.272c-0.101,0-0.15-0.083-0.15-0.247v-0.865H96.75v0.865
			c0,0.165-0.046,0.288-0.138,0.371c-0.092,0.082-0.35,0.193-0.774,0.333c-0.426,0.14-0.722,0.21-0.888,0.21
			c-0.067,0-0.101-0.066-0.101-0.198l0.025-0.865c0.017-0.263,0.025-0.544,0.025-0.84v-3.437c0-0.626-0.009-1.063-0.025-1.311
			c-0.95,0.561-1.816,1.022-2.6,1.385v6.997c0,0.214-0.047,0.371-0.138,0.47c-0.092,0.099-0.404,0.255-0.938,0.47
			c-0.534,0.214-0.862,0.321-0.987,0.321s-0.18-0.107-0.163-0.321c0.101-1.17,0.15-2.258,0.15-3.264V14.858
			c0-0.824-0.017-1.558-0.05-2.2c0.933,0.264,1.824,0.659,2.675,1.187h2.425c-0.417-1.582-1.059-2.728-1.925-3.437l0.225-0.321h-4.6
			c-0.45,0-0.8,0.058-1.05,0.173l-0.45-1.063c0.35,0.083,0.767,0.124,1.25,0.124h9.904V9.32z M102.227,10.087h-8.35
			c1.066,0.429,1.871,0.833,2.412,1.211c0.542,0.379,0.813,0.75,0.813,1.112c0,0.363-0.191,0.841-0.574,1.434h3.975
			C101.118,12.938,101.693,11.686,102.227,10.087z M96.752,22.967h3.875v-3.14h-3.875V22.967z M99.477,15.402
			c1.434,0.231,2.5,0.47,3.2,0.717c0.7,0.248,1.171,0.54,1.413,0.878c0.241,0.338,0.362,0.803,0.362,1.396
			c0,0.792-0.25,1.187-0.75,1.187c-0.134,0-0.259-0.045-0.375-0.136c-0.117-0.09-0.292-0.3-0.525-0.63
			c-0.733-1.038-1.892-2.035-3.475-2.991L99.477,15.402z"/>
		<path fill="#FFFFFF" d="M116.602,7.293h14.45l0.55-0.816c0.101-0.132,0.191-0.198,0.275-0.198c0.083,0,0.383,0.161,0.9,0.482
			c0.516,0.321,0.899,0.573,1.149,0.754c0.25,0.182,0.375,0.313,0.375,0.396c0,0.182-0.283,0.388-0.85,0.618v16.713l0.05,2.175
			c0,0.214-0.033,0.354-0.1,0.42c-0.067,0.065-0.359,0.189-0.875,0.371c-0.518,0.182-0.859,0.272-1.025,0.272
			c-0.117,0-0.175-0.115-0.175-0.346v-1.706h-15.125v0.915c0,0.198-0.067,0.346-0.2,0.445c-0.134,0.099-0.425,0.23-0.875,0.396
			c-0.45,0.165-0.733,0.247-0.85,0.247s-0.167-0.115-0.15-0.346c0.066-0.775,0.1-1.533,0.1-2.274V8.431
			c0-0.692-0.024-1.393-0.074-2.102C115.168,6.659,115.985,6.98,116.602,7.293z M131.327,18.616V7.961h-15.125v12.287
			c2.066-1.615,3.533-3.181,4.399-4.697h-2.949c-0.334,0-0.592,0.041-0.775,0.124l-0.3-0.915c0.283,0.05,0.583,0.074,0.899,0.074
			h3.5c0.2-0.379,0.434-0.931,0.7-1.656h-2.975c-0.367,0-0.608,0.033-0.726,0.099l-0.35-0.915c0.217,0.066,0.517,0.099,0.9,0.099
			h3.375c0.399-1.252,0.658-2.703,0.774-4.352c0.833,0.116,1.471,0.251,1.913,0.408c0.441,0.157,0.662,0.284,0.662,0.383
			s-0.121,0.194-0.362,0.284c-0.242,0.091-0.413,0.4-0.513,0.927c-0.184,0.956-0.367,1.739-0.55,2.349h1.175
			c0.9-1.286,1.616-2.505,2.15-3.659c0.55,0.247,1.024,0.499,1.425,0.754c0.399,0.256,0.6,0.433,0.6,0.532s-0.121,0.157-0.362,0.173
			c-0.242,0.017-0.513,0.132-0.813,0.346s-1.033,0.833-2.2,1.854h1.601l0.675-0.89c0.083-0.115,0.166-0.173,0.25-0.173
			c0.083,0,0.237,0.091,0.462,0.272c0.226,0.182,0.517,0.433,0.875,0.754s0.538,0.523,0.538,0.605c0,0.099-0.125,0.148-0.375,0.148
			h-6.226c-0.166,0.511-0.416,1.063-0.75,1.656h5.4l0.8-1.038c0.083-0.115,0.171-0.173,0.263-0.173s0.338,0.186,0.737,0.557
			c0.4,0.371,0.691,0.639,0.875,0.803c0.184,0.165,0.275,0.301,0.275,0.408s-0.125,0.161-0.375,0.161h-4.875
			C127.402,17.182,129.193,18.205,131.327,18.616z M131.327,25.687v-6.601c-0.634,0.083-1.125,0.379-1.476,0.89
			c-0.066,0.099-0.142,0.148-0.225,0.148c-0.184,0-0.596-0.243-1.237-0.729c-0.642-0.486-1.079-0.869-1.313-1.149
			c-0.067,0.461-0.209,1.014-0.425,1.656c-0.217,0.643-0.426,1.067-0.625,1.273c-0.2,0.206-0.505,0.396-0.913,0.568
			c-0.408,0.173-0.696,0.26-0.862,0.26c-0.167,0-0.259-0.083-0.275-0.248c-0.083-0.362-0.225-0.622-0.425-0.778
			s-0.642-0.326-1.325-0.507l0.025-0.42c0.767,0.132,1.304,0.198,1.612,0.198s0.538-0.053,0.688-0.161
			c0.15-0.107,0.288-0.321,0.413-0.643c0.125-0.321,0.203-0.688,0.237-1.1h-3.675V22.3c0,0.313,0.033,0.516,0.1,0.606
			c0.066,0.091,0.162,0.148,0.287,0.173s0.504,0.058,1.138,0.099s1.279,0.062,1.938,0.062s1.154-0.07,1.487-0.21
			c0.334-0.14,0.621-0.441,0.863-0.902c0.241-0.461,0.471-1.195,0.688-2.2h0.399c-0.017,0.379-0.024,0.758-0.024,1.137
			s0.033,0.705,0.1,0.977s0.241,0.523,0.525,0.754c0.166,0.132,0.25,0.256,0.25,0.371c0,0.116-0.192,0.371-0.575,0.767
			c-0.384,0.396-0.992,0.63-1.825,0.705c-0.834,0.074-1.854,0.111-3.063,0.111c-1.209,0-2.112-0.049-2.713-0.148
			c-0.6-0.099-0.975-0.255-1.125-0.47c-0.149-0.214-0.225-0.618-0.225-1.211V18.57c-1.017,0.857-2.2,1.648-3.55,2.374v4.747h15.126
			V25.687z M118.552,8.999c0.917,0.313,1.601,0.602,2.05,0.865c0.45,0.264,0.676,0.602,0.676,1.014s-0.134,0.746-0.4,1.001
			c-0.267,0.256-0.529,0.383-0.787,0.383c-0.259,0-0.413-0.165-0.463-0.495c-0.084-0.56-0.237-1.026-0.463-1.397
			c-0.226-0.37-0.505-0.72-0.838-1.05L118.552,8.999z M122.452,15.551c-0.367,0.593-0.817,1.162-1.351,1.706
			c0.334,0.148,0.608,0.289,0.825,0.42h3.226l0.175-0.346c0.083-0.148,0.191-0.222,0.325-0.222c0.133,0,0.357,0.09,0.675,0.272
			c-0.351-0.478-0.692-1.088-1.025-1.83C125.302,15.551,122.452,15.551,122.452,15.551z"/>
	</g>
</g>
<g id="图层_5" display="none">
	<g display="inline">
		<path fill="#FFFFFF" d="M64.266,38.633l-0.406-0.908h-1.72l-0.434,0.908l-0.023,0.063c-0.003,0.003-0.026,0.051-0.068,0.142
			c-0.064,0.137-0.096,0.276-0.096,0.42c0,0.247,0.128,0.423,0.383,0.527v0.088c-0.052,0-0.142-0.008-0.269-0.024
			c-0.18-0.022-0.341-0.034-0.484-0.034c-0.13,0-0.292,0.012-0.483,0.034c-0.131,0.017-0.217,0.024-0.26,0.024v-0.088
			c0.334-0.183,0.639-0.559,0.912-1.128l1.515-3.154c-0.116-0.251-0.274-0.444-0.477-0.581c-0.202-0.137-0.438-0.212-0.709-0.225
			v-0.088h0.16c0.143,0,0.339,0.01,0.588,0.029c0.261,0.02,0.432,0.029,0.511,0.029l2.304,5.146
			c-0.295,0.007-0.649,0.026-1.063,0.059v-0.088c0.231-0.042,0.347-0.176,0.347-0.4C64.494,39.219,64.418,38.968,64.266,38.633z
			 M62.318,37.358h1.377l-0.661-1.484L62.318,37.358z M65.575,39.814l-2.303-5.146h0.447c0.061,0.169,0.146,0.383,0.255,0.64
			c0.122,0.276,0.19,0.441,0.206,0.493c0.015,0.029,0.029,0.063,0.041,0.103l1.072,2.378c0.374,0.827,0.772,1.328,1.195,1.504v0.088
			C66.074,39.834,65.77,39.814,65.575,39.814z"/>
		<path fill="#FFFFFF" d="M69.355,34.668v5.146c-0.265,0.01-0.584,0.029-0.958,0.059v-0.088c0.389-0.114,0.584-0.555,0.584-1.323
			v-2.544c0-0.677-0.195-1.084-0.584-1.221v-0.088C68.714,34.642,69.033,34.661,69.355,34.668z M69.693,39.814v-5.146l0.78-0.059
			c0.386,0,0.693,0.129,0.921,0.386c0.225,0.261,0.337,0.591,0.337,0.991c0,0.501-0.204,0.862-0.611,1.084
			c0.657,0.159,0.985,0.617,0.985,1.372c0,0.381-0.108,0.715-0.324,1.001c-0.219,0.286-0.572,0.43-1.058,0.43
			c-0.18,0-0.374-0.012-0.584-0.034C69.952,39.822,69.803,39.814,69.693,39.814z M70.067,36.001v0.981h0.351
			c0.292,0,0.517-0.085,0.675-0.254c0.158-0.169,0.237-0.413,0.237-0.732c0-0.329-0.085-0.579-0.255-0.752
			c-0.17-0.169-0.374-0.254-0.611-0.254c-0.131,0-0.235,0.034-0.314,0.103C70.095,35.269,70.067,35.571,70.067,36.001z
			 M70.523,37.329h-0.456v0.879c0,0.615,0.062,1.004,0.187,1.167c0.106,0.088,0.266,0.132,0.479,0.132
			c0.356,0,0.61-0.11,0.762-0.332c0.146-0.222,0.219-0.48,0.219-0.776c0-0.237-0.047-0.441-0.142-0.61
			c-0.097-0.173-0.219-0.293-0.365-0.361C71.052,37.361,70.824,37.329,70.523,37.329z M71.796,36.914
			c0.186-0.261,0.278-0.569,0.278-0.928c0-0.283-0.052-0.537-0.155-0.762c-0.106-0.231-0.229-0.386-0.369-0.464
			c0.301,0.068,0.532,0.207,0.693,0.415c0.161,0.212,0.242,0.446,0.242,0.703c0,0.228-0.067,0.442-0.201,0.645
			C72.15,36.719,71.988,36.849,71.796,36.914z M72.024,39.678c0.28-0.315,0.42-0.72,0.42-1.211c0-0.527-0.146-0.954-0.438-1.279
			c0.578,0.225,0.867,0.638,0.867,1.24c0,0.296-0.081,0.56-0.242,0.791S72.268,39.603,72.024,39.678z"/>
		<path fill="#FFFFFF" d="M76.073,34.668v5.146c-0.219,0-0.552,0.02-0.998,0.059v-0.088c0.233-0.065,0.396-0.207,0.487-0.425
			c0.092-0.215,0.137-0.604,0.137-1.167V36.01c0-0.423-0.047-0.734-0.141-0.933c-0.095-0.195-0.256-0.322-0.483-0.381v-0.088
			C75.445,34.642,75.778,34.661,76.073,34.668z M76.416,39.814v-5.146c0.377,0,0.711-0.02,1.003-0.059v0.088
			c-0.18,0.036-0.328,0.14-0.446,0.313c-0.122,0.179-0.183,0.549-0.183,1.108v2.329c0,0.501,0.063,0.838,0.191,1.011
			c0.127,0.173,0.273,0.281,0.438,0.327v0.088C77.134,39.834,76.799,39.814,76.416,39.814z"/>
		<path fill="#FFFFFF" d="M83.406,34.668l-3.535,5.146h-0.447l3.303-4.79H81.13c-0.498,0-0.852,0.061-1.058,0.181
			c-0.21,0.124-0.37,0.366-0.479,0.728h-0.104c0.003-0.153,0.028-0.41,0.077-0.771c0.024-0.176,0.037-0.3,0.037-0.371
			c0-0.01-0.004-0.07-0.01-0.181c0.308,0.039,0.724,0.059,1.25,0.059L83.406,34.668L83.406,34.668z M80.286,39.814l3.545-5.146
			h0.442l-3.289,4.79h1.464c0.575,0,0.984-0.101,1.228-0.303c0.234-0.195,0.415-0.446,0.543-0.752h0.104
			c-0.006,0.144-0.063,0.396-0.169,0.757c-0.1,0.342-0.156,0.579-0.168,0.713c-0.411-0.039-0.785-0.059-1.123-0.059
			C82.863,39.814,80.286,39.814,80.286,39.814z"/>
		<path fill="#FFFFFF" d="M89.901,38.633l-0.406-0.908h-1.72l-0.434,0.908l-0.022,0.063c-0.003,0.003-0.026,0.051-0.068,0.142
			c-0.064,0.137-0.096,0.276-0.096,0.42c0,0.247,0.127,0.423,0.383,0.527v0.088c-0.052,0-0.142-0.008-0.27-0.024
			c-0.179-0.022-0.34-0.034-0.483-0.034c-0.131,0-0.292,0.012-0.483,0.034c-0.131,0.017-0.218,0.024-0.26,0.024v-0.088
			c0.334-0.183,0.639-0.559,0.912-1.128l1.515-3.154c-0.116-0.251-0.274-0.444-0.477-0.581s-0.439-0.212-0.71-0.225v-0.088h0.16
			c0.143,0,0.339,0.01,0.588,0.029c0.262,0.02,0.433,0.029,0.512,0.029l2.303,5.146c-0.295,0.007-0.648,0.026-1.063,0.059v-0.088
			c0.231-0.042,0.347-0.176,0.347-0.4C90.129,39.219,90.053,38.968,89.901,38.633z M87.953,37.358h1.378l-0.662-1.484L87.953,37.358
			z M91.21,39.814l-2.304-5.146h0.447c0.061,0.169,0.146,0.383,0.256,0.64c0.121,0.276,0.189,0.441,0.205,0.493
			c0.015,0.029,0.028,0.063,0.041,0.103l1.072,2.378c0.374,0.827,0.771,1.328,1.194,1.504v0.088
			C91.709,39.834,91.404,39.814,91.21,39.814z"/>
		<path fill="#FFFFFF" d="M93.992,39.229l0.228-0.249l0.657,0.693l-0.229,0.249L93.992,39.229z M94.416,38.774l0.229-0.249
			l0.656,0.693l-0.228,0.249L94.416,38.774z"/>
		<path fill="#FFFFFF" d="M98.301,35.356c-0.347,0.479-0.521,1.115-0.521,1.909c0,0.931,0.215,1.631,0.644,2.1
			c-0.325-0.146-0.584-0.412-0.775-0.796c-0.191-0.381-0.287-0.811-0.287-1.289c0-0.329,0.05-0.632,0.15-0.908
			c0.094-0.273,0.206-0.486,0.337-0.64C97.971,35.586,98.121,35.461,98.301,35.356z M102.096,38.755h0.092l-0.146,0.825
			c-0.282,0.117-0.555,0.203-0.816,0.259s-0.514,0.083-0.757,0.083c-0.736,0-1.313-0.229-1.729-0.688
			c-0.416-0.456-0.625-1.118-0.625-1.987c0-0.866,0.224-1.528,0.671-1.987c0.444-0.456,1.031-0.684,1.761-0.684
			c0.529,0,1.064,0.103,1.605,0.308c-0.024,0.41-0.036,0.652-0.036,0.728c0,0.068,0.001,0.135,0.005,0.2v0.117
			c0,0.169-0.008,0.33-0.023,0.483h-0.077c-0.188-0.983-0.715-1.475-1.578-1.475c-0.584,0-1.05,0.203-1.396,0.61
			c-0.347,0.403-0.52,0.986-0.52,1.748c0,0.667,0.159,1.209,0.479,1.626c0.316,0.417,0.794,0.625,1.433,0.625
			c0.353,0,0.675-0.075,0.967-0.225C101.691,39.178,101.923,38.989,102.096,38.755z"/>
		<path fill="#FFFFFF" d="M104.928,34.668l5.255,4.805v0.4h-0.092l-4.133-3.765v2.271c0,0.495,0.06,0.838,0.178,1.03
			c0.119,0.192,0.306,0.317,0.562,0.376v0.088c-0.459-0.039-0.771-0.059-0.936-0.059c-0.186,0-0.465,0.02-0.839,0.059v-0.088
			c0.262-0.065,0.439-0.197,0.534-0.396c0.094-0.198,0.141-0.55,0.141-1.055l-0.004-2.549l-0.329-0.298
			c-0.456-0.417-0.841-0.681-1.153-0.791v-0.088L104.928,34.668z M110.183,38.994l-4.74-4.326h0.539l3.836,3.496v-2.026
			c0-0.339-0.021-0.599-0.063-0.781c-0.043-0.173-0.13-0.317-0.261-0.435c-0.131-0.114-0.298-0.188-0.501-0.225v-0.088
			c0.003,0,0.056,0.005,0.159,0.015c0.398,0.029,0.669,0.044,0.813,0.044c0.13,0,0.442-0.02,0.935-0.059v0.088
			c-0.158,0.022-0.296,0.093-0.415,0.21c-0.115,0.11-0.194,0.247-0.237,0.41c-0.042,0.166-0.063,0.398-0.063,0.698v2.979H110.183z"
			/>
	</g>
</g>
<g id="图层_6">
	<g>
		<path fill="#FFFFFF" d="M70.904,38.528v10.396h-1.191v-1.787c-0.506,0.682-1.074,1.194-1.704,1.539
			c-0.63,0.344-1.319,0.516-2.067,0.516c-1.329,0-2.463-0.533-3.404-1.601c-0.94-1.067-1.411-2.365-1.411-3.894
			c0-1.497,0.475-2.777,1.424-3.842c0.949-1.063,2.091-1.596,3.426-1.596c0.771,0,1.468,0.182,2.092,0.545s1.172,0.907,1.644,1.634
			v-1.911h1.191V38.528z M66.076,39.551c-0.672,0-1.293,0.183-1.862,0.549s-1.021,0.88-1.357,1.542
			c-0.336,0.661-0.504,1.361-0.504,2.1c0,0.731,0.169,1.432,0.509,2.1c0.339,0.668,0.794,1.188,1.366,1.561
			c0.572,0.372,1.186,0.559,1.84,0.559c0.661,0,1.287-0.185,1.879-0.554s1.047-0.869,1.366-1.499s0.479-1.339,0.479-2.128
			c0-1.203-0.358-2.208-1.073-3.017C68.002,39.955,67.122,39.551,66.076,39.551z"/>
		<path fill="#FFFFFF" d="M73.7,48.925v-14.41h1.208v5.801c0.506-0.688,1.07-1.203,1.697-1.544c0.627-0.34,1.314-0.511,2.061-0.511
			c1.328,0,2.461,0.533,3.4,1.601s1.41,2.362,1.41,3.885c0,1.503-0.475,2.787-1.422,3.851c-0.949,1.063-2.09,1.596-3.424,1.596
			c-0.764,0-1.455-0.182-2.076-0.545s-1.17-0.907-1.646-1.634v1.911H73.7V48.925z M78.531,47.902c0.672,0,1.293-0.183,1.859-0.55
			c0.568-0.366,1.021-0.88,1.357-1.543c0.336-0.662,0.504-1.363,0.504-2.103c0-0.738-0.17-1.442-0.51-2.111
			c-0.338-0.669-0.793-1.189-1.363-1.563c-0.572-0.373-1.182-0.559-1.83-0.559c-0.66,0-1.287,0.186-1.881,0.559
			s-1.051,0.874-1.369,1.505s-0.477,1.341-0.477,2.131c0,1.204,0.355,2.211,1.07,3.02C76.607,47.498,77.486,47.902,78.531,47.902z"
			/>
		<path fill="#FFFFFF" d="M86.096,34.247c0.274,0,0.51,0.108,0.704,0.325c0.195,0.217,0.293,0.478,0.293,0.783
			c0,0.3-0.098,0.558-0.293,0.774c-0.194,0.217-0.43,0.325-0.704,0.325c-0.27,0-0.501-0.108-0.696-0.325
			c-0.194-0.217-0.292-0.475-0.292-0.774c0-0.306,0.098-0.566,0.292-0.783C85.595,34.355,85.826,34.247,86.096,34.247z
			 M85.496,38.528h1.208v10.396h-1.208V38.528z"/>
		<path fill="#FFFFFF" d="M88.447,38.528h6.895l-5.315,9.212h5.143v1.185h-7.222l5.311-9.222h-4.811L88.447,38.528L88.447,38.528z"
			/>
		<path fill="#FFFFFF" d="M106.076,38.528v10.396h-1.191v-1.787c-0.506,0.682-1.074,1.194-1.704,1.539
			c-0.63,0.344-1.318,0.516-2.066,0.516c-1.329,0-2.464-0.533-3.404-1.601S96.3,45.226,96.3,43.697c0-1.497,0.475-2.777,1.424-3.842
			c0.949-1.063,2.092-1.596,3.426-1.596c0.771,0,1.469,0.182,2.093,0.545s1.172,0.907,1.644,1.634v-1.911h1.189V38.528z
			 M101.248,39.551c-0.672,0-1.293,0.183-1.861,0.549c-0.569,0.366-1.021,0.88-1.358,1.542c-0.336,0.661-0.504,1.361-0.504,2.1
			c0,0.731,0.17,1.432,0.509,2.1s0.794,1.188,1.366,1.561c0.571,0.372,1.185,0.559,1.84,0.559c0.661,0,1.287-0.185,1.879-0.554
			s1.047-0.869,1.366-1.499s0.479-1.339,0.479-2.128c0-1.203-0.357-2.208-1.073-3.017C103.175,39.955,102.294,39.551,101.248,39.551
			z"/>
		<path fill="#FFFFFF" d="M110.123,46.822c0.294,0,0.544,0.115,0.751,0.345c0.207,0.229,0.311,0.51,0.311,0.841
			c0,0.324-0.104,0.604-0.311,0.836s-0.457,0.349-0.751,0.349c-0.293,0-0.543-0.116-0.751-0.349
			c-0.207-0.232-0.311-0.512-0.311-0.836c0-0.331,0.104-0.612,0.311-0.841C109.58,46.938,109.83,46.822,110.123,46.822z"/>
		<path fill="#FFFFFF" d="M122.799,40.688l-0.957,0.66c-0.828-1.217-1.957-1.825-3.388-1.825c-1.144,0-2.093,0.407-2.849,1.222
			s-1.133,1.804-1.133,2.968c0,0.758,0.173,1.471,0.521,2.139s0.825,1.187,1.432,1.556c0.605,0.369,1.285,0.554,2.038,0.554
			c1.379,0,2.505-0.608,3.379-1.825l0.957,0.697c-0.448,0.748-1.051,1.329-1.808,1.741c-0.756,0.413-1.618,0.619-2.584,0.619
			c-1.484,0-2.716-0.522-3.693-1.567c-0.979-1.045-1.467-2.315-1.467-3.813c0-1.007,0.229-1.941,0.686-2.805
			c0.458-0.863,1.086-1.537,1.886-2.021s1.694-0.727,2.684-0.727c0.621,0,1.221,0.105,1.799,0.315s1.068,0.484,1.472,0.821
			C122.175,39.735,122.518,40.166,122.799,40.688z"/>
		<path fill="#FFFFFF" d="M125.12,38.528h1.208v1.863c0.483-0.714,1.019-1.247,1.605-1.601s1.226-0.53,1.916-0.53
			c0.701,0,1.324,0.197,1.868,0.593c0.543,0.395,0.944,0.927,1.203,1.596s0.389,1.71,0.389,3.124v5.352h-1.208v-4.959
			c0-1.198-0.045-1.997-0.135-2.398c-0.14-0.688-0.408-1.206-0.806-1.554c-0.396-0.347-0.914-0.521-1.553-0.521
			c-0.731,0-1.386,0.268-1.964,0.803s-0.959,1.198-1.144,1.987c-0.115,0.517-0.173,1.459-0.173,2.829v3.813h-1.208V38.528H125.12z"
			/>
	</g>
</g>
<g id="图层_7" display="none">
	
		<line display="inline" fill="none" stroke="#FFFFFF" stroke-width="0.5" stroke-miterlimit="10" x1="62.75" y1="31.5" x2="133.25" y2="31.5"/>
</g>
<g id="图层_8">
	<line fill="none" stroke="#FFFFFF" stroke-miterlimit="10" x1="61.377" y1="32.5" x2="134" y2="32.5"/>
</g>
</svg>
